<?xml version="1.0" standalone="no"?>
<!DOCTYPE svg PUBLIC "-//W3C//DTD SVG 20010904//EN"
 "http://www.w3.org/TR/2001/REC-SVG-20010904/DTD/svg10.dtd">
<svg version="1.0" xmlns="http://www.w3.org/2000/svg"
 width="512.000000pt" height="512.000000pt" viewBox="0 0 512.000000 512.000000"
 preserveAspectRatio="xMidYMid meet">
<metadata>
Created by potrace 1.14, written by Peter Selinger 2001-2017
</metadata>
<g transform="translate(0.000000,512.000000) scale(0.100000,-0.100000)"
fill="#000000" stroke="none">
<path d="M2910 3848 c-220 -385 -290 -516 -283 -528 5 -8 85 -147 177 -308 93
-161 172 -290 176 -285 10 11 940 1621 940 1628 0 3 -161 5 -359 5 l-358 0
-293 -512z"/>
<path d="M1584 3708 c99 -171 616 -1091 616 -1097 0 -5 -223 -413 -495 -909
-272 -495 -498 -907 -501 -916 -6 -14 27 -16 337 -16 l344 0 523 915 c288 504
522 921 519 928 -3 6 -151 264 -330 572 l-325 560 -357 3 -356 2 25 -42z"/>
<path d="M2800 2172 c-95 -158 -178 -294 -183 -303 -8 -13 16 -62 103 -214 63
-108 119 -199 125 -201 5 -2 169 -3 363 -2 l352 3 -290 499 c-160 275 -292
501 -293 503 -2 1 -81 -127 -177 -285z"/>
</g>
</svg>
