<?xml version="1.0" standalone="no"?>
<!DOCTYPE svg PUBLIC "-//W3C//DTD SVG 20010904//EN"
 "http://www.w3.org/TR/2001/REC-SVG-20010904/DTD/svg10.dtd">
<svg version="1.0" xmlns="http://www.w3.org/2000/svg"
 width="1376.000000pt" height="1376.000000pt" viewBox="0 0 1376.000000 1376.000000"
 preserveAspectRatio="xMidYMid meet">
<metadata>
Created by potrace 1.14, written by Peter Selinger 2001-2017
</metadata>
<g transform="translate(0.000000,1376.000000) scale(0.100000,-0.100000)"
fill="#000000" stroke="none">
<path d="M4052 10493 c-22 -38 -50 -86 -62 -108 -13 -22 -31 -53 -41 -70 -10
-16 -26 -47 -35 -67 -9 -21 -20 -38 -24 -38 -4 0 -13 -12 -19 -27 -6 -16 -24
-50 -41 -78 -17 -27 -35 -59 -40 -70 -6 -11 -14 -27 -20 -35 -13 -20 -94 -161
-103 -180 -4 -8 -13 -24 -20 -35 -7 -11 -32 -54 -55 -95 -23 -41 -53 -93 -67
-115 -13 -22 -36 -62 -51 -90 -14 -27 -35 -62 -45 -77 -11 -14 -19 -28 -19
-31 0 -2 -47 -86 -105 -187 -58 -100 -105 -186 -105 -191 0 -5 -4 -9 -10 -9
-5 0 -10 -4 -10 -10 0 -8 -95 -177 -214 -380 -15 -25 -36 -64 -48 -87 l-21
-41 36 -62 c21 -34 37 -63 37 -65 0 -2 14 -28 31 -57 38 -63 63 -108 97 -168
13 -25 31 -53 40 -62 8 -10 11 -18 7 -18 -4 0 -1 -8 7 -17 8 -10 29 -43 45
-73 40 -73 221 -388 241 -420 9 -14 15 -26 14 -27 -1 -2 20 -38 46 -80 26 -43
58 -99 72 -126 14 -26 32 -56 40 -68 16 -20 16 -19 35 15 42 74 110 192 122
211 7 11 16 28 19 38 3 9 10 17 15 17 5 0 9 5 9 10 0 10 88 169 100 180 3 3
13 21 24 40 10 19 26 49 36 65 163 283 216 375 229 400 9 16 19 32 22 35 3 3
9 12 12 20 4 8 15 29 25 45 11 17 54 91 97 165 43 74 95 163 116 197 21 35 40
72 44 83 3 11 11 20 16 20 6 0 8 4 4 9 -3 5 -1 12 3 15 5 3 53 81 106 173 54
92 101 175 106 183 5 8 40 69 78 135 37 66 102 179 144 250 42 72 86 148 98
170 13 22 31 54 41 70 11 17 22 37 26 45 4 8 24 43 45 78 21 34 38 67 38 72 0
6 4 10 9 10 5 0 13 9 16 21 6 18 35 69 84 149 9 14 14 28 13 33 -1 4 3 7 8 7
6 0 10 5 10 10 0 6 11 27 24 48 36 57 160 274 168 294 7 17 -23 18 -727 18
l-734 0 -39 -67z"/>
<path d="M749 9319 c-6 -3 -7 -8 -2 -10 5 -2 24 -31 42 -64 19 -33 42 -73 51
-90 9 -16 31 -56 49 -89 18 -32 46 -81 62 -108 16 -27 29 -51 29 -54 0 -3 8
-18 19 -32 10 -15 34 -56 53 -92 20 -36 44 -81 55 -100 78 -134 133 -233 133
-236 0 -3 31 -56 75 -129 7 -11 13 -24 14 -30 1 -5 8 -17 14 -25 7 -8 18 -26
26 -40 8 -13 42 -74 76 -135 88 -156 102 -182 146 -257 22 -36 39 -71 39 -77
0 -6 4 -11 9 -11 5 0 11 -8 14 -17 3 -10 20 -43 38 -73 17 -30 41 -73 54 -95
28 -50 59 -105 97 -170 16 -27 34 -61 41 -75 6 -14 14 -27 17 -30 3 -3 12 -18
21 -35 9 -16 44 -78 77 -137 l60 -106 -29 -54 c-16 -29 -35 -64 -42 -78 -6
-14 -17 -31 -24 -38 -7 -8 -11 -18 -8 -23 4 -5 3 -9 -2 -9 -4 0 -15 -15 -22
-32 -8 -18 -21 -39 -28 -46 -7 -7 -13 -20 -13 -27 0 -7 -6 -20 -12 -27 -7 -8
-29 -45 -48 -83 -19 -39 -40 -77 -46 -85 -6 -8 -31 -51 -54 -95 -23 -44 -50
-95 -61 -112 -10 -18 -33 -60 -51 -94 -36 -67 -62 -115 -127 -234 -25 -44 -49
-89 -55 -100 -6 -11 -13 -22 -16 -25 -3 -3 -15 -25 -28 -50 -49 -96 -97 -185
-102 -190 -3 -3 -13 -20 -22 -38 -19 -35 -91 -168 -118 -217 -44 -79 -113
-206 -159 -290 -9 -16 -18 -32 -21 -35 -3 -3 -13 -21 -22 -40 -17 -34 -66
-124 -122 -225 -16 -27 -51 -93 -79 -145 -27 -52 -53 -100 -58 -105 -8 -11
-45 -79 -100 -185 -19 -36 -37 -67 -40 -70 -3 -3 -12 -18 -21 -35 -8 -16 -33
-64 -55 -105 -23 -41 -49 -91 -59 -110 -11 -19 -21 -37 -24 -40 -3 -3 -12 -18
-20 -35 -8 -16 -17 -32 -20 -35 -3 -3 -13 -21 -22 -40 -22 -45 -100 -188 -144
-263 -19 -32 -34 -61 -34 -63 0 -3 -9 -19 -21 -35 -11 -16 -17 -29 -13 -29 3
0 1 -6 -5 -14 -6 -7 -23 -35 -37 -62 -14 -27 -37 -68 -51 -91 l-25 -43 706 0
c698 0 706 0 724 20 9 12 15 22 12 24 -3 2 2 12 11 22 9 11 30 44 46 74 16 30
42 74 56 97 15 24 27 45 27 47 0 2 20 39 45 80 25 42 45 79 45 81 0 3 16 29
35 59 19 30 35 57 35 59 0 3 30 56 66 118 36 63 82 143 101 179 20 36 44 77
55 92 10 14 18 29 18 33 0 4 12 26 27 49 16 23 39 64 53 91 14 28 28 52 31 55
4 3 17 25 29 50 12 25 25 47 29 50 3 3 14 21 25 40 29 56 75 138 109 194 16
28 46 80 65 116 20 36 38 67 41 70 3 3 22 35 41 72 19 37 38 68 43 68 4 0 7 4
7 10 0 9 210 384 228 405 4 6 20 35 36 65 15 30 34 62 42 71 8 9 12 18 9 21
-3 3 1 11 10 18 8 7 15 17 15 22 0 5 15 33 33 61 18 29 38 62 45 75 32 58 38
68 52 86 8 10 14 21 14 25 -1 3 27 55 62 114 35 60 64 110 64 112 0 2 14 28
31 57 29 49 66 113 93 163 6 11 13 22 16 25 3 3 15 23 27 45 11 22 30 56 41
75 11 19 40 71 66 115 25 44 49 85 53 91 8 10 25 41 82 149 14 27 32 56 39 63
16 18 15 29 -6 60 -10 15 -28 46 -40 69 -12 23 -34 62 -49 85 -15 24 -28 45
-28 48 0 3 -8 16 -16 30 -9 14 -69 117 -134 230 -65 113 -125 216 -134 230 -8
14 -26 45 -40 70 -13 25 -29 48 -35 52 -6 4 -8 8 -4 8 4 0 -8 25 -27 55 -19
30 -35 57 -35 61 0 3 -13 26 -30 51 -16 24 -30 47 -30 50 0 3 -14 29 -32 57
-29 48 -39 65 -93 161 -13 22 -60 102 -104 179 -45 76 -81 141 -81 144 0 3 -6
13 -14 21 -7 9 -27 41 -43 71 -55 100 -145 255 -164 282 -10 15 -19 34 -19 42
0 8 -4 16 -8 18 -5 2 -26 35 -47 73 -21 39 -41 72 -44 75 -3 3 -17 25 -30 50
-13 25 -32 56 -42 70 l-17 25 -716 1 c-394 0 -721 -3 -727 -7z"/>
<path d="M5817 8244 c-1 -1 -36 -5 -77 -8 -85 -8 -126 -14 -190 -27 -25 -5
-58 -12 -74 -15 -52 -10 -199 -65 -279 -105 -131 -64 -246 -147 -352 -253 -90
-91 -216 -258 -221 -294 -2 -7 -9 -21 -17 -30 -12 -16 -56 -112 -62 -137 -2
-9 -16 -46 -32 -85 -3 -8 -7 -19 -8 -25 -2 -8 -24 -83 -30 -105 -1 -3 -5 -18
-9 -35 -4 -16 -12 -41 -17 -55 -5 -14 -11 -34 -13 -45 -7 -36 -37 -150 -43
-165 -8 -19 -7 -16 -28 -105 -3 -11 -14 -56 -25 -100 -11 -44 -23 -95 -26
-114 -3 -18 -8 -43 -11 -55 -8 -30 -12 -289 -5 -301 4 -5 7 -14 8 -20 1 -5 4
-26 7 -45 3 -19 24 -71 46 -116 45 -91 119 -173 205 -228 56 -36 196 -100 196
-89 0 3 6 1 13 -4 12 -10 101 -30 162 -38 17 -2 30 -4 30 -5 0 -9 334 -13 395
-6 19 3 55 7 80 10 25 3 56 8 70 10 119 25 154 33 158 36 1 2 5 3 10 4 6 1 69
23 127 45 55 21 221 109 250 133 6 5 32 25 59 46 185 140 347 374 435 630 25
73 52 162 55 182 1 3 4 10 7 15 4 6 12 35 19 65 7 30 15 60 19 65 3 6 6 15 7
20 1 6 13 56 27 110 14 55 28 111 30 125 3 14 14 61 25 105 11 44 23 100 27
125 11 74 14 231 5 295 -11 71 -49 195 -61 195 -5 0 -9 8 -9 18 -1 26 -88 134
-147 182 -71 59 -205 127 -285 146 -5 1 -9 2 -10 4 -5 3 -42 11 -75 15 -18 2
-40 6 -50 9 -10 3 -49 8 -88 11 -38 4 -79 8 -90 9 -11 1 -26 -2 -32 -7 -7 -5
-13 -6 -13 -1 0 7 -85 14 -93 8z m81 -573 c30 -12 69 -38 89 -58 55 -59 66
-94 66 -213 0 -89 -6 -128 -37 -250 -20 -80 -38 -154 -40 -165 -5 -32 -18 -79
-25 -90 -3 -5 -6 -15 -7 -21 -4 -26 -88 -299 -93 -304 -3 -3 -7 -13 -9 -23 -4
-23 -58 -122 -88 -163 -95 -129 -237 -204 -396 -209 -128 -4 -203 17 -265 74
-88 80 -100 183 -49 436 3 11 5 20 6 20 1 0 3 7 5 15 2 8 15 60 30 115 32 124
34 131 39 153 3 9 21 71 40 137 20 66 38 127 40 135 15 58 72 172 114 229 74
100 190 172 317 200 71 15 205 6 263 -18z"/>
<path d="M7757 8194 c-108 -28 -236 -129 -285 -227 -18 -35 -113 -366 -128
-446 -3 -14 -7 -28 -10 -33 -3 -4 -7 -16 -9 -25 -1 -10 -10 -45 -19 -78 -9
-33 -18 -67 -20 -75 -2 -8 -9 -35 -16 -60 -7 -25 -12 -47 -12 -50 0 -3 -5 -16
-10 -30 -9 -24 -13 -36 -23 -81 -2 -12 -9 -36 -15 -54 -6 -18 -12 -42 -15 -54
-2 -12 -14 -56 -25 -99 -12 -42 -28 -101 -36 -129 -8 -29 -21 -79 -30 -110 -9
-32 -18 -69 -20 -83 -3 -13 -9 -29 -15 -36 -5 -6 -7 -13 -4 -16 3 -3 -1 -24
-9 -47 -9 -23 -16 -45 -16 -49 -2 -15 -12 -58 -17 -72 -7 -17 -9 -25 -17 -60
-3 -14 -19 -74 -36 -135 -34 -121 -38 -135 -45 -166 -2 -12 -9 -36 -15 -54 -6
-18 -13 -42 -15 -54 -3 -11 -7 -30 -9 -41 -3 -11 -8 -25 -11 -31 -15 -23 -7
-81 14 -103 l21 -22 867 0 c819 1 869 2 895 19 27 19 53 64 61 107 3 14 15 59
27 100 11 41 23 83 26 93 2 9 6 25 9 35 26 93 37 140 36 155 0 29 -20 47 -61
53 -20 3 -258 7 -529 8 l-493 1 -20 25 c-29 36 -23 80 37 290 7 24 47 174 49
185 2 6 9 30 16 55 7 25 14 50 16 55 1 6 16 64 34 130 17 66 33 127 35 135 2
8 4 15 5 15 1 0 3 7 5 15 1 8 19 76 40 150 21 74 38 140 39 145 1 6 5 16 9 23
5 6 6 12 3 12 -3 0 2 21 10 48 8 26 17 56 19 67 7 35 65 249 72 265 4 8 8 22
9 30 1 8 12 51 24 95 12 44 23 84 25 90 1 5 5 22 10 38 11 41 -1 73 -32 85
-37 14 -337 11 -396 -4z"/>
<path d="M9467 8192 c-108 -35 -164 -72 -236 -157 -26 -30 -81 -142 -81 -164
0 -8 -9 -44 -20 -80 -31 -106 -31 -118 -6 -148 l23 -26 289 -2 c159 -1 295 -3
301 -3 15 -2 44 -44 47 -69 2 -9 -4 -38 -11 -63 -14 -42 -36 -125 -97 -350
-14 -52 -44 -162 -66 -245 -23 -82 -43 -159 -45 -169 -3 -10 -9 -33 -15 -51
-6 -18 -12 -42 -15 -54 -2 -12 -14 -56 -25 -99 -12 -42 -23 -81 -24 -87 -1 -5
-5 -16 -9 -22 -5 -7 -6 -13 -3 -13 2 0 0 -15 -5 -32 -10 -32 -46 -165 -54
-201 -2 -9 -6 -21 -9 -25 -3 -5 -8 -22 -11 -38 -10 -47 -10 -48 -18 -61 -5 -7
-6 -13 -4 -13 3 0 -2 -21 -10 -47 -8 -27 -17 -61 -20 -78 -3 -16 -8 -37 -13
-45 -4 -8 -11 -33 -15 -55 -5 -22 -9 -46 -11 -53 -1 -7 8 -25 20 -39 l22 -26
260 -1 c142 -1 276 2 296 6 61 13 96 59 113 150 3 13 14 52 25 87 10 35 17 68
14 73 -3 4 -1 8 4 8 5 0 9 6 9 13 1 6 8 39 18 72 9 33 19 71 22 85 2 14 7 32
10 40 3 8 7 20 8 26 2 6 10 36 18 65 9 30 18 65 21 79 3 14 10 41 16 60 6 19
13 43 15 53 2 10 7 27 10 37 3 10 8 27 10 37 2 10 9 35 15 56 5 20 15 54 20
75 6 20 12 44 14 52 14 55 28 107 33 120 3 8 8 23 10 33 1 10 33 127 69 260
36 133 68 251 71 262 18 77 -17 151 -87 181 -19 8 79 11 382 11 295 0 415 3
436 12 54 23 62 41 137 321 50 189 53 230 18 246 -10 4 -424 8 -921 9 -740 1
-910 -1 -945 -13z"/>
<path d="M11900 8199 c-52 -8 -129 -37 -148 -56 -7 -7 -18 -13 -23 -13 -5 0
-34 -25 -63 -55 -55 -58 -91 -118 -112 -190 -37 -130 -53 -201 -48 -219 11
-45 34 -49 341 -50 158 -1 294 -5 301 -10 8 -4 20 -22 27 -39 10 -25 10 -38
-1 -69 -7 -21 -13 -40 -14 -43 0 -3 0 -6 -1 -7 0 -2 -2 -10 -4 -18 -1 -8 -10
-42 -19 -75 -9 -33 -30 -112 -47 -175 -17 -63 -33 -118 -35 -122 -6 -9 -15
-52 -17 -80 -1 -10 -4 -18 -7 -18 -4 0 -7 -6 -7 -12 0 -11 -12 -57 -54 -208
-5 -19 -12 -43 -14 -54 -2 -10 -12 -44 -21 -75 -9 -31 -17 -60 -19 -66 -8 -35
-98 -372 -134 -498 -17 -60 -30 -112 -29 -115 1 -4 -2 -14 -5 -22 -3 -8 -11
-35 -18 -60 -7 -25 -14 -52 -16 -60 -13 -46 -10 -70 13 -91 23 -22 28 -22 293
-22 317 0 339 5 371 81 8 18 51 172 65 232 2 8 4 16 5 18 3 3 6 12 15 57 4 22
12 46 18 53 5 6 7 12 4 12 -3 0 -1 15 4 33 6 17 12 39 14 47 2 8 20 74 40 147
20 72 38 140 40 150 3 10 14 52 25 93 12 41 23 86 26 99 3 13 9 32 15 43 5 10
8 18 5 18 -3 0 0 15 5 33 9 28 79 282 78 282 0 0 2 7 5 15 8 25 37 134 40 150
1 9 5 21 10 28 4 6 4 12 0 12 -3 0 -1 7 6 15 7 8 10 15 6 15 -3 0 -1 11 4 25
29 75 34 170 12 204 -21 32 -53 60 -69 61 -7 0 -13 4 -13 9 0 4 181 8 403 8
418 0 432 2 465 42 16 20 34 59 39 86 4 22 52 202 59 225 3 8 5 16 5 17 0 2 9
33 20 70 24 84 24 95 0 124 l-19 24 -889 0 c-488 1 -908 -2 -933 -6z"/>
<path d="M3585 6627 c-22 -34 -42 -66 -44 -72 -2 -5 -32 -55 -65 -110 -34 -55
-68 -112 -75 -127 -8 -16 -18 -28 -23 -28 -4 0 -8 -4 -8 -10 0 -13 -62 -114
-72 -118 -4 -2 -8 -8 -8 -13 0 -4 -56 -101 -125 -215 -69 -114 -125 -210 -125
-215 0 -5 -3 -9 -7 -9 -5 0 -13 -10 -19 -23 -6 -12 -39 -68 -74 -125 l-63
-103 22 -42 c12 -23 33 -60 46 -82 14 -22 29 -49 35 -60 6 -11 24 -42 40 -70
17 -27 35 -62 41 -77 6 -16 15 -28 20 -28 5 0 9 -5 9 -10 0 -6 18 -40 40 -76
22 -36 40 -67 40 -68 0 -2 40 -72 88 -157 l88 -154 730 -1 c401 -1 732 1 736
3 9 5 -12 53 -24 53 -4 0 -8 9 -8 20 0 11 -4 20 -8 20 -4 0 -15 15 -23 33 -15
31 -169 297 -189 327 -6 8 -17 30 -25 48 -9 17 -20 32 -25 32 -6 0 -10 7 -10
16 0 9 -8 28 -19 42 -15 22 -146 246 -230 395 -9 16 -21 36 -26 45 -6 9 -27
46 -48 82 -21 36 -42 72 -47 80 -36 58 -100 173 -100 181 0 5 -4 9 -10 9 -5 0
-10 5 -10 10 0 6 -11 27 -23 48 -13 20 -35 57 -49 82 -53 94 -121 212 -185
317 -23 40 -43 77 -43 83 0 5 -3 10 -7 10 -5 0 -19 23 -33 51 -13 28 -29 54
-35 59 -7 6 -25 -13 -50 -53z"/>
</g>
</svg>
